<?xml version="1.0" encoding="utf-8"?>
<!-- Generator: 333132 Adobe Illustrator 16.0.0, SVG Export Plug-In . SVG Version: 6.00 Build 0)  -->
<!DOCTYPE svg PUBLIC "-//W3C//DTD SVG 1.1//EN" "http://www.w3.org/Graphics/SVG/1.1/DTD/svg11.dtd">
<svg version="1.1" id="Layer_1" xmlns="http://www.w3.org/2000/svg" xmlns:xlink="http://www.w3.org/1999/xlink" x="0px" y="0px"
	 width="300px" height="70px" viewBox="0 0 300 70" enable-background="new 0 0 300 70" xml:space="preserve">
<g>
	<path fill="#FFFFFF" d="M182.468,26.067c-2.293,2.701-3.422,5.835-3.422,9.401c0,3.638,1.201,6.628,3.568,8.968
		c2.404,2.342,5.427,3.53,9.031,3.53c1.822,0,3.752-0.396,5.9-1.188c0.693-0.252,1.713-1.008,2.586-1.765
		c1.203-0.973,1.857-2.449,1.857-3.999v-4.105h-3.643v4.611c0,1.152-0.145,2.088-0.545,2.845c-0.365,0.757-1.057,1.405-2.113,1.909
		c-1.056,0.54-2.221,0.793-3.496,0.793c-2.549,0-4.662-0.938-6.337-2.773c-1.712-1.873-2.586-5.008-2.586-9.438
		c0-4.466,0.911-7.563,2.659-9.293c1.783-1.765,3.824-2.629,6.229-2.629c2.293,0,4.223,0.756,5.826,2.269
		c0.474,0.397,0.875,0.901,1.238,1.405l0.838-0.864v-0.108c-2.148-2.413-4.953-3.602-8.305-3.602
		C187.858,22.033,184.763,23.366,182.468,26.067 M90.516,22.897h8.05v-0.864H83.269v6.411v9.51v1.549v1.801v6.663h15.224v-0.899
		h-8.05H87.02v-5.764v-1.801V38.53v-0.576v-3.17h2.768h4.808v-0.9h-4.917H87.02v-4.646V28.48v-5.583H90.516z M123.512,30.065
		l3.424-8.032h-1.201l-2.223,5.547c-0.218,0.648-0.509,1.404-0.873,2.233l-5.9,14.012l-7.357-16.857l-1.393-3.043
		c-0.271-0.439-1.421-1.776-4.323-1.892H103.3l2.586,5.871l8.813,20.063h1.202L123.512,30.065z M139.646,22.897h8.049v-0.864
		h-15.297v6.411v9.51v1.549v1.801v6.663h15.224v-0.899h-8.049h-3.424v-5.764v-1.801V38.53v-0.576v-3.17h2.769h4.808v-0.9h-4.917
		h-2.659v-4.646V28.48v-5.583H139.646z M159.642,23.113c3.021,0,5.098,0.36,6.009,1.44c0.911,1.081,1.347,2.45,1.347,4.251
		c0,1.009-0.108,1.837-0.4,2.558c-0.254,0.685-0.619,1.26-1.092,1.692c-0.438,0.433-1.057,0.938-1.82,1.153
		c-0.729,0.216-1.604,0.576-2.623,0.576h-3.061V23.113H159.642z M160.005,22.033h-5.718v6.52v12.534v6.88h3.714v-6.88v-5.438h1.131
		c7.102,0,10.962,11.13,11.254,12.318h2.984c-2.402-5.799-4.332-8.392-4.332-8.392c-2.404-3.207-4.152-3.891-5.209-4.395
		c2.404-0.325,4.225-1.262,5.5-2.45c1.238-1.152,1.857-2.629,1.857-4.286c0-1.44-0.475-2.665-1.42-3.71
		c-0.947-1.009-2.223-1.657-3.752-2.089C164.485,22.178,162.481,22.033,160.005,22.033 M209.357,47.967h18.247v-0.864h-14.459V24.23
		l-0.072-0.335c0,0-0.234-1.723-2.879-1.862h-0.837v6.52v12.751V47.967z M252.515,35c0,3.999-0.4,6.987-2.039,9.005
		s-3.461,3.025-6.338,3.025c-3.24,0-4.807-1.008-6.445-3.025c-1.604-2.018-2.404-5.006-2.404-9.041c0-3.962,0.801-6.952,2.404-8.969
		c1.639-2.017,3.131-3.025,6.154-3.025c3.096,0,5.025,1.009,6.665,3.098C252.151,28.12,252.515,31.109,252.515,35 M256.812,34.964
		c0-3.998-1.311-7.168-3.969-9.473c-2.623-2.306-5.063-3.458-8.996-3.458s-6.301,1.152-8.922,3.493
		c-2.623,2.342-3.934,5.439-3.934,9.294c0,3.962,1.311,7.167,3.859,9.545c2.586,2.413,5.026,3.602,9.032,3.602
		c4.153,0,6.593-1.188,9.142-3.602C255.538,41.987,256.812,38.854,256.812,34.964 M298.128,22.033h-1.201l-2.186,5.619
		c-0.219,0.612-0.51,1.405-0.874,2.269l-5.9,13.904l-6.409-14.732h-1.53c0,0-1.712,4.286-6.154,14.769l-7.358-16.894l-1.266-2.768
		l-0.002-0.003c0,0-0.004-0.01-0.01-0.023l-0.039-0.087c-0.221-0.452-1.287-2.158-4.758-2.046l-0.004-0.008h-0.002l2.586,5.907
		l8.813,20.026h1.201l6.338-14.947l6.556,14.947h1.165l7.612-17.901L298.128,22.033z"/>
	<path fill="#FFFFFF" d="M59.695,49.757v0.003c0.021,0.01,0.496,0.195,0.646,0.282c0.189,0.14,0.334,0.338,0.334,0.591
		c0,0.042-0.101,0.356-0.105,0.368c-5.02,12.727-18.358,15.307-26.354,15.471c-2.355-0.005-6.876-0.186-11.722-2.371
		c-1.505-0.678-2.936-1.568-4.285-2.615c-0.099-0.072-0.2-0.135-0.299-0.209c-1.441-1.097-2.726-2.354-3.818-3.773
		c-0.068-0.081-0.141-0.158-0.208-0.24c-3.792-4.592-5.1-13.878-1.388-17.791c1.981-2.087,4.479-2.928,6.363-3.27
		c1.327-0.27,2.919-0.387,3.899-0.387c1.043,0,5.598,0.064,8.057,2.522c2.008,2.151,2.753,4.044,3.089,5.979
		c0.325,1.868,0.498,7.834,0.498,7.834s0,0.183,0.153,0.183c0.114,0,0.152-0.174,0.152-0.174s0.391-5.834,0.65-7.816
		c0.25-1.906,0.829-3.885,2.848-5.903c1.877-1.878,5.009-2.609,7.36-2.854l5.428-0.432c0,0,0.187-0.023,0.187-0.138
		c0-0.115-0.189-0.153-0.189-0.153l-5.428-0.433c-2.352-0.244-5.442-0.951-7.319-2.828c-2.019-2.02-2.639-4.022-2.889-5.929
		c-0.259-1.982-0.649-7.816-0.649-7.816s-0.039-0.174-0.153-0.174c-0.153,0-0.153,0.183-0.153,0.183s-0.173,5.965-0.497,7.834
		c-0.336,1.934-1.081,3.826-3.09,5.979c-2.458,2.458-6.049,2.447-8.057,2.522c-0.258-0.001-0.514-0.003-0.763-0.003
		c-1.205,0-2.349-0.12-3.427-0.333c-1.856-0.408-4.211-1.293-6.07-3.236c-2.432-2.544-2.704-7.384-1.553-11.719
		c0.021-0.084,0.932-3.252,2.657-5.692c1.082-1.526,2.378-2.881,3.851-4.063c0.478-0.384,0.966-0.737,1.459-1.069
		c1.142-0.819,2.288-1.426,3.534-1.988c2.695-1.215,4.753-1.903,7.165-2.198c2.357-0.322,4.039-0.333,4.337-0.333
		c0.026,0,0.402-0.007,0.568-0.007c8.026,0.221,21.099,2.874,26.055,15.441c0.005,0.011,0.105,0.326,0.105,0.368
		c0,0.253-0.145,0.451-0.334,0.591c-0.15,0.086-0.626,0.271-0.646,0.282v0.004c-1.404,0.551-2.402,1.911-2.402,3.512
		c0,2.088,1.683,3.713,3.77,3.713c2.248,0,3.726-2.151,3.726-4.567c-0.036-0.501-0.07-1.002-0.145-1.495
		c-0.011-0.065-0.021-0.138-0.03-0.198C62.805,10.053,51.276,0.951,35.192,0.951L33.316,0.93C16.49,1.065,3.791,11.191,3.459,23.758
		c0.002,1.367,0.089,3.397,1.101,6.294C5.48,32.688,3.571,34,2.735,34.449c-0.236,0.148-0.485,0.28-0.757,0.374
		c0,0-0.106,0.041-0.106,0.192c0,0.113,0.106,0.152,0.106,0.152c0.247,0.07,0.472,0.177,0.686,0.299
		c0.8,0.407,2.845,1.716,1.896,4.435c-1.021,2.921-1.101,4.963-1.101,6.329c0.326,12.573,13.11,22.704,29.942,22.84l1.791-0.021
		c16.693,0,28.491-9.863,29.596-21.591c0-4.112-2.301-5.097-4.013-4.927c-2.076,0.207-3.482,1.625-3.482,3.713
		C57.293,47.845,58.291,49.204,59.695,49.757"/>
</g>
</svg>
